<svg version="1.1" id="Warstwa_1" xmlns="http://www.w3.org/2000/svg" x="0" y="0" viewBox="0 0 500 500" style="enable-background:new 0 0 500 500" xml:space="preserve">
  <style>
    .st1{fill:#fff}
  </style>
  <circle id="XMLID1" cx="251.3" cy="251.3" r="251.3" style="fill:#f7921e"/>
  <path id="XMLID2" class="st1" d="M135.4 232.1c-15-15-15-39.4 0-54.5L258.5 54.5c15-15 39.4-15 54.5 0 15 15 15 39.4 0 54.5L189.9 232.1c-15.1 15.1-39.5 15.1-54.5 0z"/>
  <path id="XMLID5" class="st1" d="M173.9 459.4c-15-15-15-39.4 0-54.5L297 281.8c15-15 39.4-15 54.5 0 15 15 15 39.4 0 54.5L228.4 459.4c-15.1 15-39.5 15-54.5 0z"/>
  <path id="XMLID4" class="st1" d="M205.6 295.6c-15-15-15-39.4 0-54.5l34.3-34.3c15-15 39.4-15 54.5 0 15 15 15 39.4 0 54.5l-34.3 34.3c-15.1 15.1-39.5 15.1-54.5 0z"/>
</svg>