<?xml version="1.0" encoding="utf-8"?>
<!-- Generator: Adobe Illustrator 19.0.0, SVG Export Plug-In . SVG Version: 6.00 Build 0)  -->
<svg version="1.1" id="Warstwa_1" xmlns="http://www.w3.org/2000/svg" xmlns:xlink="http://www.w3.org/1999/xlink" x="0px" y="0px"
	 viewBox="0 0 400 400" style="enable-background:new 0 0 400 400;" xml:space="preserve">
<style type="text/css">
	.st0{fill:#F79320;}
	.st1{fill:#FFFFFF;}
</style>
<circle class="st0" cx="200" cy="200" r="200"/>
<path class="st1" d="M327.5,280.2c-6-8.5-14.1-14.6-23-19.8c-16.8-9.8-35-15.8-53.8-20.3c-6.1-1.5-12.2-2.7-18.3-3.6
	c-2.7-0.4-5.4-0.9-8.2-1.1c-2.8-0.2-5.6-0.7-8.5-0.8c-4-0.1-7.9-0.9-11.9-1c-7.6-0.2-15.1,0.8-22.7,1.4c-7,0.5-13.9,1.7-20.8,3
	c-16.8,3.2-33.2,8-48.9,14.9c-11,4.9-21.4,10.6-30.3,18.8c-6.8,6.3-12,13.5-13.5,22.9c-0.4,2.2-0.6,4.2,0.9,6.3
	C81,318,96.4,332,114.4,343.1c8.6,5.3,17.7,9.6,27.1,13.2c4.5,1.8,9.2,3.3,13.9,4.6c3.6,1,7.3,1.9,11,2.7c9.8,2,19.8,3.3,29.9,3.4
	c6.9,0.1,13.8,0,20.6-1c3-0.5,6.2-0.6,9.2-1c7.1-0.9,14.1-2.6,20.9-4.6c35-10.4,63.7-30.1,85.4-59.7c0.8-1.1,1.8-2.1,1.2-3.5
	C333.2,290.9,331.2,285.5,327.5,280.2z"/>
<circle class="st1" cx="200.5" cy="125.4" r="83.3"/>
</svg>
